# This file uses centimeters as units for non-parametric coordinates.

g default
v 0.040089 0.000000 0.498909
v 0.040089 1.000000 0.498909
v 0.040089 0.000000 -0.501091
v 0.040089 1.000000 -0.501091
v 0.001091 0.620545 0.119454
v 0.001091 0.620545 -0.121636
v 0.001091 0.379455 -0.121636
v 0.001091 0.379455 0.119454
v -0.363932 0.620545 0.119454
v -0.363932 0.620545 -0.121636
v -0.363932 0.379455 -0.121636
v -0.363932 0.379455 0.119454
vt 0.000000 0.000000
vt 1.000000 0.000000
vt 0.000000 1.000000
vt 1.000000 1.000000
vt 1.000000 0.000000
vt 1.000000 1.000000
vt 0.000000 1.000000
vt 0.000000 0.000000
vt 1.000000 0.000000
vt 1.000000 1.000000
vt 0.000000 1.000000
vt 0.000000 0.000000
vt 1.000000 0.000000
vt 1.000000 1.000000
vt 0.000000 1.000000
vt 0.000000 0.000000
vn -1.000000 0.000000 0.000000
vn -1.000000 0.000000 0.000000
vn -1.000000 0.000000 0.000000
vn -1.000000 0.000000 0.000000
vn 1.000000 0.000000 0.000000
vn 1.000000 0.000000 0.000000
vn 1.000000 0.000000 0.000000
vn 1.000000 0.000000 0.000000
vn -0.994760 0.102234 0.000000
vn -0.994760 0.102234 0.000000
vn -0.994760 0.102234 0.000000
vn -0.994760 0.102234 0.000000
vn -0.994760 0.000000 -0.102234
vn -0.994760 0.000000 -0.102234
vn -0.994760 0.000000 -0.102234
vn -0.994760 0.000000 -0.102234
vn -0.994760 -0.102234 0.000000
vn -0.994760 -0.102234 0.000000
vn -0.994760 -0.102234 0.000000
vn -0.994760 -0.102234 0.000000
vn -0.994760 0.000000 0.102234
vn -0.994760 0.000000 0.102234
vn -0.994760 0.000000 0.102234
vn -0.994760 0.000000 0.102234
vn 0.000000 1.000000 0.000000
vn 0.000000 1.000000 0.000000
vn 0.000000 1.000000 0.000000
vn 0.000000 1.000000 0.000000
vn 0.000000 0.000000 -1.000000
vn 0.000000 0.000000 -1.000000
vn 0.000000 0.000000 -1.000000
vn 0.000000 0.000000 -1.000000
vn 0.000000 -1.000000 0.000000
vn 0.000000 -1.000000 0.000000
vn 0.000000 -1.000000 0.000000
vn 0.000000 -1.000000 0.000000
vn 0.000000 0.000000 1.000000
vn 0.000000 0.000000 1.000000
vn 0.000000 0.000000 1.000000
vn 0.000000 0.000000 1.000000
s 1
g pPlane16
f 9/13/1 10/14/2 12/16/3
f 12/16/3 10/14/2 11/15/4
s 2
f 2/5/5 1/8/6 4/6/7
f 4/6/7 1/8/6 3/7/8
s 3
f 2/2/9 4/4/10 5/9/11
f 5/9/11 4/4/10 6/10/12
s 4
f 4/4/13 3/3/14 6/10/15
f 6/10/15 3/3/14 7/11/16
s 5
f 3/3/17 1/1/18 7/11/19
f 7/11/19 1/1/18 8/12/20
s 6
f 1/1/21 2/2/22 8/12/23
f 8/12/23 2/2/22 5/9/24
s 7
f 5/9/25 6/10/26 9/13/27
f 9/13/27 6/10/26 10/14/28
s 8
f 6/10/29 7/11/30 10/14/31
f 10/14/31 7/11/30 11/15/32
s 9
f 7/11/33 8/12/34 11/15/35
f 11/15/35 8/12/34 12/16/36
s 10
f 8/12/37 5/9/38 12/16/39
f 12/16/39 5/9/38 9/13/40
g default
v 0.040089 0.000000 0.498909
v 0.040089 1.000000 0.498909
v 0.040089 0.000000 -0.501091
v 0.040089 1.000000 -0.501091
v 0.001091 0.620545 0.119454
v 0.001091 0.620545 -0.121636
v 0.001091 0.379455 -0.121636
v 0.001091 0.379455 0.119454
v -0.363932 0.620545 0.119454
v -0.363932 0.620545 -0.121636
v -0.363932 0.379455 -0.121636
v -0.363932 0.379455 0.119454
vt 0.000000 0.000000
vt 1.000000 0.000000
vt 0.000000 1.000000
vt 1.000000 1.000000
vt 1.000000 0.000000
vt 1.000000 1.000000
vt 0.000000 1.000000
vt 0.000000 0.000000
vt 1.000000 0.000000
vt 1.000000 1.000000
vt 0.000000 1.000000
vt 0.000000 0.000000
vt 1.000000 0.000000
vt 1.000000 1.000000
vt 0.000000 1.000000
vt 0.000000 0.000000
vn -1.000000 0.000000 0.000000
vn -1.000000 0.000000 0.000000
vn -1.000000 0.000000 0.000000
vn -1.000000 0.000000 0.000000
vn 1.000000 0.000000 0.000000
vn 1.000000 0.000000 0.000000
vn 1.000000 0.000000 0.000000
vn 1.000000 0.000000 0.000000
vn -0.994760 0.102234 0.000000
vn -0.994760 0.102234 0.000000
vn -0.994760 0.102234 0.000000
vn -0.994760 0.102234 0.000000
vn -0.994760 0.000000 -0.102234
vn -0.994760 0.000000 -0.102234
vn -0.994760 0.000000 -0.102234
vn -0.994760 0.000000 -0.102234
vn -0.994760 -0.102234 0.000000
vn -0.994760 -0.102234 0.000000
vn -0.994760 -0.102234 0.000000
vn -0.994760 -0.102234 0.000000
vn -0.994760 0.000000 0.102234
vn -0.994760 0.000000 0.102234
vn -0.994760 0.000000 0.102234
vn -0.994760 0.000000 0.102234
vn 0.000000 1.000000 0.000000
vn 0.000000 1.000000 0.000000
vn 0.000000 1.000000 0.000000
vn 0.000000 1.000000 0.000000
vn 0.000000 0.000000 -1.000000
vn 0.000000 0.000000 -1.000000
vn 0.000000 0.000000 -1.000000
vn 0.000000 0.000000 -1.000000
vn 0.000000 -1.000000 0.000000
vn 0.000000 -1.000000 0.000000
vn 0.000000 -1.000000 0.000000
vn 0.000000 -1.000000 0.000000
vn 0.000000 0.000000 1.000000
vn 0.000000 0.000000 1.000000
vn 0.000000 0.000000 1.000000
vn 0.000000 0.000000 1.000000
s 1
g pPlane16
f 21/29/41 22/30/42 24/32/43
f 24/32/43 22/30/42 23/31/44
s 2
f 14/21/45 13/24/46 16/22/47
f 16/22/47 13/24/46 15/23/48
s 3
f 14/18/49 16/20/50 17/25/51
f 17/25/51 16/20/50 18/26/52
s 4
f 16/20/53 15/19/54 18/26/55
f 18/26/55 15/19/54 19/27/56
s 5
f 15/19/57 13/17/58 19/27/59
f 19/27/59 13/17/58 20/28/60
s 6
f 13/17/61 14/18/62 20/28/63
f 20/28/63 14/18/62 17/25/64
s 7
f 17/25/65 18/26/66 21/29/67
f 21/29/67 18/26/66 22/30/68
s 8
f 18/26/69 19/27/70 22/30/71
f 22/30/71 19/27/70 23/31/72
s 9
f 19/27/73 20/28/74 23/31/75
f 23/31/75 20/28/74 24/32/76
s 10
f 20/28/77 17/25/78 24/32/79
f 24/32/79 17/25/78 21/29/80
