# This file uses centimeters as units for non-parametric coordinates.

g default
v -0.149000 1.000000 0.149000
v -0.149000 0.000000 0.149000
v 0.151000 0.000000 0.149000
v 0.151000 1.000000 0.149000
v -0.149000 1.000000 -0.151000
v -0.149000 0.000000 -0.151000
vt 1.000000 1.000000
vt 0.000000 1.000000
vt 0.000000 0.000000
vt 1.000000 0.000000
vt 0.712652 0.042174
vt 0.287348 0.042174
vt 0.000000 0.000000
vt 1.000000 0.000000
vn 0.000000 0.000000 1.000000
vn 0.000000 0.000000 1.000000
vn 0.000000 0.000000 1.000000
vn 0.000000 0.000000 1.000000
vn -1.000000 0.000000 -0.000000
vn -1.000000 0.000000 -0.000000
vn -1.000000 0.000000 -0.000000
vn -1.000000 0.000000 -0.000000
s 1
g sharp_corner
f 1/1/1 2/2/2 4/4/3
f 4/4/3 2/2/2 3/3/4
s 2
f 2/5/5 1/6/6 6/8/7
f 6/8/7 1/6/6 5/7/8
