# This file uses centimeters as units for non-parametric coordinates.

v -0.626075 -0.730278 0.646248
v -0.368071 -0.762072 0.706296
v 0.030859 -0.742640 0.712368
v 0.415168 -0.708150 0.711038
v 0.675929 -0.662777 0.682866
v -0.593087 -0.482368 0.607120
v -0.319385 -0.480108 0.764938
v 0.060068 -0.452634 0.821525
v 0.434632 -0.411814 0.805740
v 0.734826 -0.400808 0.726438
v -0.514334 -0.137633 0.522687
v -0.246898 -0.115587 0.700444
v 0.102694 -0.075051 0.800090
v 0.471604 -0.031250 0.836046
v 0.774656 -0.002851 0.744393
v -0.516689 0.630657 0.701494
v -0.192807 0.228670 0.598648
v 0.107960 0.457807 0.726799
v 0.495692 0.369801 0.797411
v 0.787888 0.399369 0.737372
v -0.480189 1.008227 0.732074
v -0.198923 0.675130 0.476496
v 0.058568 1.130094 0.575206
v 0.481133 0.745159 0.656281
v 0.751662 0.667952 0.686539
v -0.605709 1.374274 0.701254
v -0.210685 0.689713 0.240423
v 0.095345 0.920145 0.276329
v 0.476051 0.804217 0.345200
v 0.756365 0.689361 0.391390
v -0.552827 0.676050 -0.065874
v -0.256886 0.704921 -0.131276
v 0.088920 0.806495 -0.095782
v 0.454970 0.819564 -0.056960
v 0.757118 0.717033 -0.028086
v -0.640587 0.637771 -0.504026
v -0.344886 0.786024 -0.499018
v 0.043833 0.859466 -0.487319
v 0.446708 0.852031 -0.472702
v 0.761173 0.742507 -0.465820
v -0.731676 0.723634 -0.805753
v -0.440247 0.797594 -0.842713
v 0.007404 0.822025 -0.845973
v 0.492963 0.825525 -0.854093
v 0.901772 0.773028 -0.848884
v -0.785026 0.416715 -0.838779
v -0.468047 0.461761 -0.957659
v 0.000762 0.471792 -0.975606
v 0.822517 0.478222 -1.092390
v 1.300693 0.467309 -1.017335
v -0.812794 -0.023125 -0.847645
v -0.474161 -0.004058 -0.974723
v -0.006988 0.005571 -0.982419
v 0.442820 0.029379 -0.923794
v 0.798299 0.043275 -0.769095
v -0.789938 -0.451469 -0.812407
v -0.463055 -0.437271 -0.909782
v -0.104921 -0.481194 -0.935687
v 0.342187 -0.371920 -0.807806
v 0.636939 -0.317314 -0.630322
v -0.745912 -0.739906 -0.759173
v -0.445961 -0.734698 -0.745447
v -0.519811 -1.208894 -1.005822
v 0.016757 -0.963556 -0.827454
v 0.547283 -0.556096 -0.542102
v -0.746374 -0.764849 -0.447775
v -0.430525 -0.850673 -0.411671
v -0.213136 -1.032619 -0.486248
v 0.281773 -0.861120 -0.316889
v 0.562743 -0.836998 -0.278106
v -0.699664 -0.751291 -0.019777
v -0.398787 -0.872888 0.012436
v -0.006775 -0.892001 0.034765
v 0.231054 -1.170658 0.241058
v 0.706654 -1.108692 -0.252104
v -0.657398 -0.741403 0.373810
v -0.379653 -0.854644 0.413377
v 0.014169 -0.867961 0.423058
v 0.407589 -0.829852 0.428555
v 0.722995 -0.722052 0.405095
v 0.784617 -0.348811 -0.343810
v 0.883584 -0.430768 -0.047063
v 0.852605 -0.398363 0.440805
v 0.879030 0.026331 -0.409793
v 0.928302 0.010485 0.013663
v 0.899280 0.008998 0.432244
v 0.914237 0.437289 -0.469017
v 0.906431 0.418045 -0.009853
v 0.859477 0.394659 0.404134
v -0.833175 -0.453970 -0.468866
v -0.797507 -0.461440 -0.066434
v -0.717080 -0.468090 0.310470
v -0.842591 -0.063637 -0.493790
v -0.791539 -0.100205 -0.109120
v -0.685576 -0.082378 0.268111
v -0.782141 0.331857 -0.505882
v -0.740067 0.475113 -0.015221
v -0.771764 1.227643 0.784541
vt 0.375000 0.000000
vt 0.437500 0.000000
vt 0.500000 0.000000
vt 0.562500 0.000000
vt 0.625000 0.000000
vt 0.375000 0.062500
vt 0.437500 0.062500
vt 0.500000 0.062500
vt 0.562500 0.062500
vt 0.625000 0.062500
vt 0.375000 0.125000
vt 0.437500 0.125000
vt 0.500000 0.125000
vt 0.562500 0.125000
vt 0.625000 0.125000
vt 0.375000 0.187500
vt 0.437500 0.187500
vt 0.500000 0.187500
vt 0.562500 0.187500
vt 0.625000 0.187500
vt 0.375000 0.250000
vt 0.437500 0.250000
vt 0.500000 0.250000
vt 0.562500 0.250000
vt 0.625000 0.250000
vt 0.375000 0.312500
vt 0.437500 0.312500
vt 0.500000 0.312500
vt 0.562500 0.312500
vt 0.625000 0.312500
vt 0.375000 0.375000
vt 0.437500 0.375000
vt 0.500000 0.375000
vt 0.562500 0.375000
vt 0.625000 0.375000
vt 0.375000 0.437500
vt 0.437500 0.437500
vt 0.500000 0.437500
vt 0.562500 0.437500
vt 0.625000 0.437500
vt 0.375000 0.500000
vt 0.437500 0.500000
vt 0.500000 0.500000
vt 0.562500 0.500000
vt 0.625000 0.500000
vt 0.375000 0.562500
vt 0.437500 0.562500
vt 0.500000 0.562500
vt 0.562500 0.562500
vt 0.625000 0.562500
vt 0.375000 0.625000
vt 0.437500 0.625000
vt 0.500000 0.625000
vt 0.562500 0.625000
vt 0.625000 0.625000
vt 0.375000 0.687500
vt 0.437500 0.687500
vt 0.500000 0.687500
vt 0.562500 0.687500
vt 0.625000 0.687500
vt 0.375000 0.750000
vt 0.437500 0.750000
vt 0.500000 0.750000
vt 0.562500 0.750000
vt 0.625000 0.750000
vt 0.375000 0.812500
vt 0.437500 0.812500
vt 0.500000 0.812500
vt 0.562500 0.812500
vt 0.625000 0.812500
vt 0.375000 0.875000
vt 0.437500 0.875000
vt 0.500000 0.875000
vt 0.562500 0.875000
vt 0.625000 0.875000
vt 0.375000 0.937500
vt 0.437500 0.937500
vt 0.500000 0.937500
vt 0.562500 0.937500
vt 0.625000 0.937500
vt 0.375000 1.000000
vt 0.437500 1.000000
vt 0.500000 1.000000
vt 0.562500 1.000000
vt 0.625000 1.000000
vt 0.875000 0.000000
vt 0.812500 0.000000
vt 0.750000 0.000000
vt 0.687500 0.000000
vt 0.875000 0.062500
vt 0.812500 0.062500
vt 0.750000 0.062500
vt 0.687500 0.062500
vt 0.875000 0.125000
vt 0.812500 0.125000
vt 0.750000 0.125000
vt 0.687500 0.125000
vt 0.875000 0.187500
vt 0.812500 0.187500
vt 0.750000 0.187500
vt 0.687500 0.187500
vt 0.875000 0.250000
vt 0.812500 0.250000
vt 0.750000 0.250000
vt 0.687500 0.250000
vt 0.125000 0.000000
vt 0.187500 0.000000
vt 0.250000 0.000000
vt 0.312500 0.000000
vt 0.125000 0.062500
vt 0.187500 0.062500
vt 0.250000 0.062500
vt 0.312500 0.062500
vt 0.125000 0.125000
vt 0.187500 0.125000
vt 0.250000 0.125000
vt 0.312500 0.125000
vt 0.125000 0.187500
vt 0.187500 0.187500
vt 0.250000 0.187500
vt 0.312500 0.187500
vt 0.125000 0.250000
vt 0.187500 0.250000
vt 0.250000 0.250000
vt 0.312500 0.250000
vn -0.202066 0.178863 0.962900
vn -0.191439 -0.107943 0.975551
vn -0.442429 0.187886 0.876901
vn -0.293966 0.039506 0.954999
vn -0.022908 -0.317966 0.947825
vn -0.070093 -0.100606 0.992454
vn 0.092125 -0.322436 0.942097
vn 0.109861 -0.148054 0.982858
vn 0.206738 -0.262672 0.942477
vn 0.268671 -0.133511 0.953934
vn -0.340990 0.100316 0.934699
vn -0.391607 0.251322 0.885145
vn -0.207290 0.105324 0.972593
vn 0.078896 0.010285 0.996830
vn 0.271324 -0.005808 0.962470
vn -0.178031 0.056321 0.982412
vn 0.425443 -0.042984 0.903964
vn -0.286476 0.195444 0.937941
vn -0.001483 0.183081 0.983097
vn 0.191093 0.095292 0.976936
vn -0.122131 0.169248 0.977977
vn 0.584857 -0.121493 0.801986
vn -0.261576 0.193980 0.945489
vn -0.012651 0.275652 0.961174
vn 0.059110 0.302958 0.951169
vn 0.069522 0.984761 -0.159413
vn 0.253972 0.898442 -0.358190
vn 0.896871 0.358037 0.259677
vn 0.752971 0.606454 -0.255437
vn 0.186519 0.814575 -0.549253
vn -0.094133 0.946986 -0.307175
vn 0.443934 0.895375 -0.035007
vn 0.307735 0.946615 0.096017
vn 0.266025 0.961125 0.073956
vn 0.343923 0.934414 0.092664
vn 0.239437 0.908424 -0.342690
vn -0.174901 0.973000 0.150601
vn -0.193160 0.980912 -0.022386
vn 0.185780 0.982589 0.002316
vn 0.328310 0.943392 0.047168
vn -0.246170 0.963084 0.108952
vn -0.400535 0.908744 0.117285
vn -0.095949 0.994466 0.042789
vn 0.138828 0.990208 0.014638
vn 0.264512 0.962435 0.061259
vn -0.188466 0.972215 0.138849
vn -0.194256 0.926493 0.322298
vn -0.058491 0.996857 -0.053427
vn 0.095710 0.995398 -0.004846
vn 0.124825 0.984369 0.124246
vn -0.089510 0.335462 -0.937792
vn -0.154399 0.144600 -0.977370
vn -0.283335 0.251587 -0.925433
vn -0.359198 0.080315 -0.929799
vn -0.021726 0.347399 -0.937466
vn -0.052291 0.131148 -0.989983
vn -0.075159 0.484264 -0.871688
vn 0.045605 -0.027592 -0.998578
vn 0.110929 0.615010 -0.780678
vn 0.149124 -0.167855 -0.974468
vn -0.168653 -0.041832 -0.984787
vn -0.335453 -0.044940 -0.940985
vn 0.085173 -0.073551 -0.993648
vn 0.123181 -0.320503 -0.939204
vn 0.287515 -0.553884 -0.781375
vn -0.167539 -0.251942 -0.953130
vn -0.276894 -0.142418 -0.950288
vn 0.116052 -0.102652 -0.987924
vn 0.435466 -0.278621 -0.856002
vn 0.474178 -0.427974 -0.769411
vn -0.113168 -0.355883 -0.927653
vn -0.518434 0.124565 -0.845996
vn -0.042869 0.120034 -0.991844
vn 0.396669 -0.156374 -0.904544
vn 0.603024 -0.357378 -0.713192
vn 0.020954 -0.996591 -0.079797
vn -0.744975 -0.606222 0.278401
vn -0.199313 -0.976900 -0.077072
vn -0.475140 -0.874289 -0.099302
vn -0.388559 -0.778211 0.493365
vn -0.075638 -0.976825 0.200229
vn 0.445066 -0.895449 -0.009336
vn 0.163617 -0.934098 -0.317317
vn 0.576593 -0.746722 -0.331582
vn 0.158280 -0.375215 -0.913324
vn -0.351161 -0.935687 0.034303
vn -0.237337 -0.966024 0.102321
vn -0.207058 -0.978283 -0.009468
vn 0.018597 -0.971879 0.234746
vn 0.174899 -0.983772 -0.040038
vn -0.383616 -0.920946 0.068540
vn -0.167569 -0.975170 0.144794
vn -0.132523 -0.916956 0.376338
vn 0.173280 -0.744433 0.644821
vn 0.470817 -0.772848 0.425485
vn -0.288484 -0.937350 0.195326
vn -0.068778 -0.941237 0.330669
vn 0.061922 -0.917114 0.393787
vn 0.131616 -0.911682 0.389247
vn 0.273331 -0.910647 0.309859
vn 0.635029 -0.083881 -0.767920
vn 0.769537 -0.425904 -0.475834
vn 0.872613 -0.315712 -0.372655
vn 0.831732 -0.408434 -0.376037
vn 0.959398 -0.186353 -0.211725
vn 0.968518 -0.234509 -0.083533
vn 0.932644 -0.329023 0.148052
vn 0.958784 -0.218327 0.181841
vn 0.896928 -0.333204 0.290681
vn 0.911551 -0.169958 0.374419
vn 0.966617 -0.193787 -0.167623
vn 0.864580 -0.479880 0.149053
vn 0.998851 -0.040173 -0.026149
vn 0.981833 -0.017556 0.188933
vn 0.926615 -0.064034 0.370519
vn 0.959476 0.033141 0.279834
vn 0.817708 -0.017441 0.575368
vn 0.977899 0.205676 0.037563
vn 0.974128 0.181913 0.134096
vn 0.962415 0.097208 0.253589
vn 0.696886 0.548570 0.461976
vn 0.879741 0.439278 0.181910
vn 0.893413 0.448037 0.032800
vn 0.928566 0.365088 0.066899
vn 0.960621 0.246549 0.128147
vn -0.960004 -0.276003 0.047068
vn -0.993249 -0.115808 0.006719
vn -0.972677 -0.219205 -0.076472
vn -0.989013 -0.093626 -0.114400
vn -0.951744 -0.273980 0.138272
vn -0.981952 -0.103939 0.158007
vn -0.975359 -0.104267 0.194431
vn -0.955566 0.007962 0.294669
vn -0.983223 0.147722 0.107012
vn -0.929215 0.163574 0.331366
vn -0.997855 0.059191 0.027982
vn -0.997977 0.030829 -0.055595
vn -0.982973 0.054310 0.175539
vn -0.949408 -0.045857 0.310678
vn -0.849843 -0.010987 0.526921
vn -0.976214 0.213408 0.038244
vn -0.978008 0.172449 0.117311
vn -0.992512 0.117220 -0.034337
vn -0.963615 0.242298 0.112864
vn -0.543719 -0.313070 0.778690
vn -0.904924 0.418107 0.079364
vn -0.938633 0.128724 0.319997
vn -0.725801 0.582503 -0.365928
vn -0.710663 0.644251 -0.282662
vn 0.145404 -0.043132 0.988432
f 1/1/1 2/2/2 6/6/3
f 6/6/3 2/2/2 7/7/4
f 2/2/2 3/3/5 7/7/4
f 7/7/4 3/3/5 8/8/6
f 3/3/5 4/4/7 8/8/6
f 8/8/6 4/4/7 9/9/8
f 4/4/7 5/5/9 9/9/8
f 9/9/8 5/5/9 10/10/10
f 6/6/3 7/7/4 11/11/11
f 11/11/11 7/7/4 12/12/12
f 7/7/4 8/8/6 12/12/12
f 12/12/12 8/8/6 13/13/13
f 8/8/6 9/9/8 13/13/13
f 13/13/13 9/9/8 14/14/14
f 9/9/8 10/10/10 14/14/14
f 14/14/14 10/10/10 15/15/15
f 12/12/12 17/17/16 11/11/11
f 11/11/11 17/17/16 16/16/17
f 12/12/12 13/13/13 17/17/16
f 17/17/16 13/13/13 18/18/18
f 14/14/14 19/19/19 13/13/13
f 13/13/13 19/19/19 18/18/18
f 14/14/14 15/15/15 19/19/19
f 19/19/19 15/15/15 20/20/20
f 17/17/16 22/22/21 16/16/17
f 16/16/17 22/22/21 21/21/22
f 17/17/16 18/18/18 22/22/21
f 22/22/21 18/18/18 23/23/23
f 19/19/19 24/24/24 18/18/18
f 18/18/18 24/24/24 23/23/23
f 20/20/20 25/25/25 19/19/19
f 19/19/19 25/25/25 24/24/24
f 22/22/26 27/27/27 21/21/28
f 21/21/28 27/27/27 26/26/29
f 23/23/30 28/28/31 22/22/26
f 22/22/26 28/28/31 27/27/27
f 23/23/30 24/24/32 28/28/31
f 28/28/31 24/24/32 29/29/33
f 25/25/34 30/30/35 24/24/32
f 24/24/32 30/30/35 29/29/33
f 26/26/29 27/27/27 31/31/36
f 31/31/36 27/27/27 32/32/37
f 28/28/31 33/33/38 27/27/27
f 27/27/27 33/33/38 32/32/37
f 29/29/33 34/34/39 28/28/31
f 28/28/31 34/34/39 33/33/38
f 30/30/35 35/35/40 29/29/33
f 29/29/33 35/35/40 34/34/39
f 32/32/37 37/37/41 31/31/36
f 31/31/36 37/37/41 36/36/42
f 33/33/38 38/38/43 32/32/37
f 32/32/37 38/38/43 37/37/41
f 34/34/39 39/39/44 33/33/38
f 33/33/38 39/39/44 38/38/43
f 35/35/40 40/40/45 34/34/39
f 34/34/39 40/40/45 39/39/44
f 37/37/41 42/42/46 36/36/42
f 36/36/42 42/42/46 41/41/47
f 38/38/43 43/43/48 37/37/41
f 37/37/41 43/43/48 42/42/46
f 38/38/43 39/39/44 43/43/48
f 43/43/48 39/39/44 44/44/49
f 39/39/44 40/40/45 44/44/49
f 44/44/49 40/40/45 45/45/50
f 42/42/51 47/47/52 41/41/53
f 41/41/53 47/47/52 46/46/54
f 43/43/55 48/48/56 42/42/51
f 42/42/51 48/48/56 47/47/52
f 43/43/55 44/44/57 48/48/56
f 48/48/56 44/44/57 49/49/58
f 44/44/57 45/45/59 49/49/58
f 49/49/58 45/45/59 50/50/60
f 47/47/52 52/52/61 46/46/54
f 46/46/54 52/52/61 51/51/62
f 48/48/56 53/53/63 47/47/52
f 47/47/52 53/53/63 52/52/61
f 49/49/58 54/54/64 48/48/56
f 48/48/56 54/54/64 53/53/63
f 50/50/60 55/55/65 49/49/58
f 49/49/58 55/55/65 54/54/64
f 52/52/61 57/57/66 51/51/62
f 51/51/62 57/57/66 56/56/67
f 53/53/63 58/58/68 52/52/61
f 52/52/61 58/58/68 57/57/66
f 54/54/64 59/59/69 53/53/63
f 53/53/63 59/59/69 58/58/68
f 55/55/65 60/60/70 54/54/64
f 54/54/64 60/60/70 59/59/69
f 56/56/67 57/57/66 61/61/71
f 61/61/71 57/57/66 62/62/72
f 57/57/66 58/58/68 62/62/72
f 62/62/72 58/58/68 63/63/73
f 59/59/69 64/64/74 58/58/68
f 58/58/68 64/64/74 63/63/73
f 60/60/70 65/65/75 59/59/69
f 59/59/69 65/65/75 64/64/74
f 61/61/76 62/62/77 66/66/78
f 66/66/78 62/62/77 67/67/79
f 63/63/80 68/68/81 62/62/77
f 62/62/77 68/68/81 67/67/79
f 63/63/80 64/64/82 68/68/81
f 68/68/81 64/64/82 69/69/83
f 64/64/82 65/65/84 69/69/83
f 69/69/83 65/65/84 70/70/85
f 66/66/78 67/67/79 71/71/86
f 71/71/86 67/67/79 72/72/87
f 67/67/79 68/68/81 72/72/87
f 72/72/87 68/68/81 73/73/88
f 68/68/81 69/69/83 73/73/88
f 73/73/88 69/69/83 74/74/89
f 70/70/85 75/75/90 69/69/83
f 69/69/83 75/75/90 74/74/89
f 71/71/86 72/72/87 76/76/91
f 76/76/91 72/72/87 77/77/92
f 72/72/87 73/73/88 77/77/92
f 77/77/92 73/73/88 78/78/93
f 73/73/88 74/74/89 78/78/93
f 78/78/93 74/74/89 79/79/94
f 75/75/90 80/80/95 74/74/89
f 74/74/89 80/80/95 79/79/94
f 76/76/91 77/77/92 1/81/96
f 1/81/96 77/77/92 2/82/97
f 77/77/92 78/78/93 2/82/97
f 2/82/97 78/78/93 3/83/98
f 78/78/93 79/79/94 3/83/98
f 3/83/98 79/79/94 4/84/99
f 80/80/95 5/85/100 79/79/94
f 79/79/94 5/85/100 4/84/99
f 70/87/101 65/86/102 81/91/103
f 81/91/103 65/86/102 60/90/104
f 75/88/105 70/87/101 82/92/106
f 82/92/106 70/87/101 81/91/103
f 75/88/105 82/92/106 80/89/107
f 80/89/107 82/92/106 83/93/108
f 80/89/107 83/93/108 5/5/109
f 5/5/109 83/93/108 10/10/110
f 81/91/103 60/90/104 84/95/111
f 84/95/111 60/90/104 55/94/112
f 82/92/106 81/91/103 85/96/113
f 85/96/113 81/91/103 84/95/111
f 82/92/106 85/96/113 83/93/108
f 83/93/108 85/96/113 86/97/114
f 10/10/110 83/93/108 15/15/115
f 15/15/115 83/93/108 86/97/114
f 84/95/111 55/94/112 87/99/116
f 87/99/116 55/94/112 50/98/117
f 85/96/113 84/95/111 88/100/118
f 88/100/118 84/95/111 87/99/116
f 86/97/114 85/96/113 89/101/119
f 89/101/119 85/96/113 88/100/118
f 15/15/115 86/97/114 20/20/120
f 20/20/120 86/97/114 89/101/119
f 50/98/117 45/102/121 87/99/116
f 87/99/116 45/102/121 40/103/122
f 88/100/118 87/99/116 35/104/123
f 35/104/123 87/99/116 40/103/122
f 89/101/119 88/100/118 30/105/124
f 30/105/124 88/100/118 35/104/123
f 20/20/120 89/101/119 25/25/125
f 25/25/125 89/101/119 30/105/124
f 66/107/126 90/111/127 61/106/128
f 61/106/128 90/111/127 56/110/129
f 71/108/130 91/112/131 66/107/126
f 66/107/126 91/112/131 90/111/127
f 76/109/132 92/113/133 71/108/130
f 71/108/130 92/113/133 91/112/131
f 1/1/134 6/6/135 76/109/132
f 76/109/132 6/6/135 92/113/133
f 90/111/127 93/115/136 56/110/129
f 56/110/129 93/115/136 51/114/137
f 91/112/131 94/116/138 90/111/127
f 90/111/127 94/116/138 93/115/136
f 92/113/133 95/117/139 91/112/131
f 91/112/131 95/117/139 94/116/138
f 6/6/135 11/11/140 92/113/133
f 92/113/133 11/11/140 95/117/139
f 93/115/136 96/119/141 51/114/137
f 51/114/137 96/119/141 46/118/142
f 93/115/136 94/116/138 96/119/141
f 96/119/141 94/116/138 97/120/143
f 94/116/138 95/117/139 97/120/143
f 97/120/143 95/117/139 98/121/144
f 11/11/140 16/16/145 95/117/139
f 95/117/139 16/16/145 98/121/144
f 96/119/141 36/123/146 46/118/142
f 46/118/142 36/123/146 41/122/147
f 96/119/141 97/120/143 36/123/146
f 36/123/146 97/120/143 31/124/148
f 97/120/143 98/121/144 31/124/148
f 31/124/148 98/121/144 26/125/149
f 16/16/145 21/21/150 98/121/144
f 98/121/144 21/21/150 26/125/149
